<?xml version="1.0" standalone="no"?>

<!DOCTYPE svg PUBLIC "-//W3C//DTD SVG 20010904//EN"

 "http://www.w3.org/TR/2001/REC-SVG-20010904/DTD/svg10.dtd">

<svg version="1.0" xmlns="http://www.w3.org/2000/svg"

 width="819.000000pt" height="819.000000pt" viewBox="0 0 819.000000 819.000000"

 preserveAspectRatio="xMidYMid meet">

<path fill="#0a0a0a" stroke="none" d="
M480 722

C474 720 468 713 466 707

C465 705 464 699 463 695

C462 691 461 682 460 676

L458 664

L457 664

L456 664

L456 663

C457 663 456 658 454 653

C449 634 441 615 430 599

C423 588 406 571 395 564

C373 550 344 540 314 536

C300 534 296 533 291 529

C278 517 279 495 294 485

C297 483 300 482 309 481

C326 479 344 475 355 472

C365 469 386 459 386 458

L386 457

L387 457

C387 458 390 456 394 454

C413 441 430 421 441 398

C446 388 454 364 454 359

L455 356

L455 356

L456 356

L456 354

L456 351

L462 354

C467 356 469 356 478 356

C485 356 489 356 493 354

C499 352 508 346 513 341

C515 339 516 338 516 338

L517 338

L517 341

C517 343 517 345 518 345

C518 346 518 348 519 349

C519 354 525 374 530 386

C534 396 534 396 538 396

L542 396

L542 402

L542 408

L537 408

L532 408

L532 414

L532 420

L538 420

L543 420

L543 416

L543 412

L545 415

C546 417 548 418 548 418

L549 418

L549 419

L548 419

L551 423

C557 431 568 442 575 447

C582 452 593 459 594 459

L595 459

L595 458

L595 456

L600 456

L606 456

L605 460

L605 465

L610 466

C620 470 633 474 634 474

L634 473

L635 474

C637 475 650 478 661 479

C670 480 675 482 681 488

C684 490 686 491 688 491

L692 491

L692 497

L692 503

L691 503

L690 503

L690 509

C689 515 686 523 683 526

C682 527 679 527 676 527

L671 527

L670 530

L670 534

L657 536

C651 537 640 539 633 541

C562 560 527 605 516 693

C513 710 510 716 500 722

C495 724 485 724 480 722

Z

M504 568

C518 548 537 529 557 516

C560 514 563 512 563 512

L564 511

L564 511

C564 511 566 511 567 511

L569 510

L569 508

L569 507

L568 507

C567 507 563 505 559 502

C555 500 551 498 551 498

L550 498

L550 497

C550 497 547 494 543 491

C524 477 503 450 492 427

C490 423 489 420 488 420

C488 420 487 421 487 423

L485 426

L486 426

L486 426

L485 427

C484 428 482 433 479 438

C470 453 462 463 447 478

L433 492

L433 492

L433 491

L428 495

C426 496 420 500 415 503

C411 506 407 509 407 509

C407 509 409 511 412 512

C421 517 436 528 446 538

C461 552 473 567 483 586

L488 596

L494 586

C496 581 501 572 504 568

Z

M638 521

L638 515

L633 515

L627 515

L627 521

L627 526

L633 526

L638 526

L638 521

Z

M659 509

L659 503

L654 503

L649 504

L648 508

C648 510 648 513 648 514

L649 515

L654 515

L659 515

L659 509

Z

M638 497

L638 492

L633 492

L628 492

L627 497

L627 503

L632 503

L638 503

L638 497

Z

M584 485

L584 479

L579 479

L574 480

L573 485

L573 491

L578 491

L584 491

L584 485

Z

M638 485

L638 480

L632 479

L627 479

L627 484

L627 490

L633 490

L638 490

L638 485

Z

M606 473

L606 468

L602 468

C599 468 597 468 596 468

L596 468

L595 473

C595 476 595 478 595 478

C595 479 598 479 601 479

L606 479

L606 473

Z

M543 462

L543 456

L538 456

L532 456

L532 450

L532 444

L527 444

L521 444

L521 438

L521 432

L515 432

L510 432

L510 438

L511 444

L516 444

L521 444

L521 450

L522 456

L527 456

L532 456

L532 462

L532 467

L538 467

L543 467

L543 462

Z

M489 414

L489 408

L484 408

L478 408

L478 414

L478 420

L483 420

L489 420

L489 414

Z

M521 402

L521 396

L516 396

L511 397

L510 401

C510 403 510 406 510 407

L511 408

L516 408

L521 408

L521 402

Z

M511 367

C511 362 510 360 504 360

L500 360

L500 366

L500 372

L505 372

L510 372

L511 367

Z

M692 545

L692 539

L697 539

C699 539 701 539 702 539

C702 539 702 542 702 545

L702 550

L697 550

L692 550

L692 545

Z

M692 509

L692 503

L697 503

L703 503

L703 497

L703 491

L708 491

L713 491

L713 485

L713 479

L718 479

L724 480

L724 485

L724 491

L718 491

L713 491

L713 497

L713 502

L708 502

L703 503

L702 508

L702 514

L697 514

L692 514

L692 509

Z

M670 474

L670 468

L676 468

L681 468

L681 474

L681 479

L676 479

L670 479

L670 474

Z

M627 461

L627 456

L621 455

L616 455

L616 449

L616 444

L611 444

L607 444

L606 438

L606 432

L611 432

L616 432

L616 438

L616 444

L622 444

L627 444

L627 450

L627 456

L632 456

L638 456

L638 461

L638 467

L632 467

L627 467

L627 461

Z

M660 462

L660 456

L665 456

L670 456

L670 462

L670 467

L665 467

L660 467

L660 462

Z

M692 462

L692 456

L697 456

L702 456

L702 462

L702 467

L697 467

L692 467

L692 462

Z

M574 443

C573 443 573 440 573 437

L573 432

L568 432

L563 432

L563 426

L563 421

L557 420

L552 420

L552 414

L552 408

L554 408

C555 407 558 407 559 408

L562 408

L562 414

L562 420

L568 420

L573 420

L573 426

L573 432

L579 432

L584 432

L584 438

L584 444

L579 444

C576 444 574 444 574 443

Z

M713 438

L713 432

L718 432

L724 433

L724 438

L724 444

L718 444

L713 444

L713 438

Z

M585 432

L584 432

L584 426

L584 421

L589 421

L595 421

L595 426

L595 432

L590 432

C588 432 586 432 585 432

Z

M642 432

L638 432

L638 426

L638 421

L643 421

L648 421

L648 426

L648 432

L647 432

C647 432 645 432 642 432

Z

M259 425

C250 421 246 414 243 398

C239 369 231 345 219 327

C213 318 198 303 189 298

C173 288 154 282 131 278

C117 277 113 275 108 269

C105 265 102 258 102 253

C102 249 105 242 108 238

C112 232 117 230 128 229

C140 228 151 225 153 224

L154 223

L154 224

C155 224 170 219 179 214

C206 201 225 178 235 146

C239 134 241 126 243 110

C244 103 246 97 247 95

L248 93

L248 93

L247 93

L251 90

C258 83 265 81 273 83

C284 86 289 94 291 111

C297 151 312 183 334 201

L341 206

L341 206

L342 206

L344 208

C347 211 360 217 362 217

L363 217

L363 218

L363 219

L371 222

C376 223 382 225 385 226

L390 227

L390 228

C390 228 389 231 387 234

C381 247 380 262 385 274

L387 280

L387 281

C387 281 382 282 377 283

C364 287 345 296 335 304

C331 308 324 314 321 319

L314 327

L315 328

L315 329

L314 329

C314 329 312 332 310 336

L306 343

L307 343

L308 343

L306 344

C305 345 301 356 298 367

C295 377 292 389 291 400

C290 411 286 418 280 422

C276 425 275 426 269 426

C265 426 260 426 259 425

Z

M270 310

C275 301 283 289 292 279

C297 274 301 270 301 270

C302 270 304 268 306 267

C309 265 314 261 318 258

L325 254

L315 247

C298 236 283 218 272 200

C270 196 267 192 267 192

C267 192 264 196 261 201

C251 219 236 236 219 247

C214 250 209 253 209 253

L209 254

L216 258

L223 263

L223 263

L223 262

L227 266

C232 270 251 289 251 289

C251 290 253 293 256 298

C259 302 263 308 264 310

C265 313 267 315 267 315

C267 315 269 313 270 310

Z

M595 414

L595 409

L600 409

L606 409

L606 415

L606 420

L600 420

L595 420

L595 414

Z

M563 403

L563 397

L568 397

L573 397

L573 403

L573 408

L568 408

L563 408

L563 403

Z

M535 383

L532 383

L532 377

L532 372

L537 372

L542 372

L542 378

L542 384

L540 384

C539 384 537 383 535 383

Z

M532 355

L532 349

L537 349

L542 349

L542 355

L542 360

L537 360

L532 360

L532 355

Z

M469 349

C459 346 456 343 425 311

C396 281 393 278 391 272

C388 264 387 254 389 246

C391 240 396 230 397 230

C397 230 422 254 451 284

L505 338

L504 340

C502 341 498 344 494 346

C488 349 486 349 480 350

C475 350 471 349 469 349

Z

M543 343

L543 337

L548 337

L553 337

L553 343

L553 348

L548 348

L543 348

L543 343

Z

M584 347

C584 346 584 343 584 341

L584 338

L589 337

L595 337

L595 342

L595 348

L589 348

L584 348

L584 347

Z

M505 327

L499 321

L501 319

C502 318 509 309 518 300

C527 290 534 282 534 281

L534 280

L535 280

C535 280 546 292 547 293

C547 293 543 297 539 302

C535 307 531 311 531 311

C531 311 526 316 521 322

L511 333

L505 327

Z

M457 280

C438 261 422 244 421 243

L419 241

L437 221

L456 201

L493 238

L530 275

L526 279

C515 292 494 315 493 315

C493 315 477 299 457 280

Z

M498 233

C468 203 444 179 444 178

C444 177 460 160 486 131

C495 122 507 109 512 103

L521 93

L521 94

L521 94

L523 92

C527 90 535 90 541 91

C545 92 549 95 581 127

C601 147 619 165 622 168

C630 175 633 182 633 190

C633 196 633 198 630 202

C628 206 610 226 565 275

C558 282 553 288 552 288

C552 288 528 263 498 233

Z

M408 230

L402 224

L404 221

C406 220 414 211 422 201

L438 184

L444 190

C447 193 450 196 450 196

C450 197 431 218 417 232

L413 236

L408 230

Z

"/>

<path fill="#1e1d1d" stroke="none" d="
M484 723

L485 722

L481 720

C479 720 477 719 475 719

C474 718 472 718 472 717

L470 716

L471 714

L471 713

L469 712

L467 712

L468 710

L468 709

L467 709

L466 710

L466 707

L467 704

L465 704

L464 704

L464 703

L464 702

L465 702

L466 702

L466 700

L466 699

L464 698

L463 698

L464 695

L464 692

L463 692

L462 692

L462 688

L463 684

L462 684

L461 684

L461 682

L462 679

L461 679

L460 679

L460 677

L461 674

L460 674

L459 674

L460 672

L460 669

L459 669

L458 669

L459 664

L459 660

L458 661

L456 661

L456 660

L456 659

L457 659

L458 659

L458 658

L458 657

L456 657

L455 657

L456 655

L456 653

L455 653

L454 653

L455 652

L455 650

L454 650

L453 650

L454 648

L454 646

L453 646

L452 646

L453 645

L453 643

L452 643

L451 643

L452 641

L452 640

L451 638

L449 637

L450 637

L451 636

L450 635

L450 634

L449 635

L448 635

L448 634

C449 634 449 632 448 631

L448 629

L447 630

L446 630

L447 629

L448 627

L445 624

C444 623 443 621 443 619

C442 618 441 616 440 615

L438 613

L439 611

L439 610

L438 610

L437 611

L437 610

C438 610 438 608 437 607

L436 605

L435 606

L434 606

L434 605

C435 604 434 602 433 600

L431 597

L430 598

L429 598

L429 597

L430 596

L429 594

L428 593

L427 594

L426 594

L427 593

L427 591

L426 590

C425 590 424 590 424 589

L423 589

L423 588

C423 586 416 579 415 579

L414 579

L414 578

C414 577 408 571 406 571

L405 572

L405 571

C404 570 404 569 404 568

L403 567

L401 567

L400 568

L400 567

L401 566

L399 566

L397 566

L397 564

C397 563 393 561 392 562

L391 562

L391 560

L391 559

L389 559

L388 560

L388 559

L389 558

L384 556

C382 554 379 553 378 553

L377 554

L377 553

L378 552

L376 552

C375 551 374 551 373 551

L372 552

L370 550

C369 549 368 548 367 548

C366 548 365 548 364 547

C363 547 362 546 361 546

L360 547

L360 546

L360 545

L359 545

L357 546

L357 545

L358 544

L357 544

C356 543 355 543 354 543

L353 542

L351 543

L350 544

L350 543

L350 542

L349 542

L347 543

L347 541

L347 540

L346 540

C346 540 345 541 344 541

L343 543

L344 541

L344 540

L342 540

L339 541

L340 540

L340 539

L337 539

L334 540

L334 539

L334 538

L332 538

L329 539

L329 538

L329 537

L327 538

L324 538

L324 537

L324 536

L321 537

L318 537

L318 536

L318 535

L314 535

L310 536

L310 534

L309 533

L307 533

C306 533 305 533 305 534

C304 535 303 535 303 535

L302 535

L302 533

L302 532

L299 532

L296 533

L296 532

L297 531

L295 531

L293 531

L293 530

L294 529

L291 526

C289 525 287 522 286 519

C285 517 283 515 283 515

L282 515

L282 513

C283 512 283 510 283 508

C283 505 284 503 284 503

C284 502 285 500 285 499

C286 497 287 494 289 492

C291 490 292 488 292 487

L292 486

L293 486

C293 487 295 486 297 486

L301 485

L300 483

L300 482

L301 482

C301 482 302 483 303 483

L304 485

L306 483

L307 481

L310 482

L313 483

L313 481

L313 480

L318 480

L322 481

L322 480

L322 479

L325 480

L328 480

L328 479

L328 478

L331 479

L333 479

L333 478

L333 477

L336 478

L339 478

L338 477

L338 476

L339 477

L341 478

L342 478

L343 477

L342 476

L342 475

L343 476

L345 477

L346 477

L347 476

L346 475

L346 474

L347 475

C348 475 349 476 350 475

L351 475

L350 474

L350 473

L351 474

L353 474

L353 473

L353 472

L355 472

L356 473

L356 472

L356 471

L358 472

L359 472

L359 471

L359 470

L361 471

L362 471

L362 470

L362 469

L364 470

L366 470

L367 469

L367 467

L368 468

C369 468 370 468 371 467

L373 467

L372 466

L372 465

L374 466

L375 466

L375 465

L374 464

L375 464

C375 465 377 465 377 464

L379 464

L379 463

L378 462

L380 462

L381 461

L380 462

L380 463

L382 462

C383 461 384 460 384 460

L384 459

L385 459

C385 460 387 460 387 459

L389 459

L389 457

L389 456

L390 456

C391 457 392 457 393 456

L395 455

L394 454

L394 453

L396 454

L397 454

L398 452

L398 450

L400 451

L401 451

L402 449

L402 447

L403 448

L405 448

L406 446

C407 446 408 444 409 443

L410 441

L411 441

L413 441

L413 440

L412 438

L416 435

L419 432

L419 432

L419 433

L421 431

L423 430

L423 428

L422 427

L423 427

C424 427 426 426 427 424

L429 421

L429 420

L428 419

L430 419

L431 419

L431 418

L430 416

L431 416

L433 417

L432 415

L432 413

L433 414

L434 414

L435 412

C436 411 436 410 436 409

C436 409 436 408 436 407

L436 406

L437 406

L439 406

L440 403

C441 402 441 400 441 399

C441 397 441 396 444 394

C445 392 446 390 446 389

L445 387

L446 387

L448 388

L447 385

L447 382

L448 383

L449 383

L449 381

L448 379

L449 379

L450 379

L449 378

L449 376

L450 376

L451 376

L451 375

L450 373

L451 373

C451 373 452 373 452 373

L453 373

L452 371

L451 370

L452 370

L454 371

L453 367

L453 363

L454 363

L455 363

L455 361

L454 360

L455 359

L457 358

L455 357

L454 356

L455 356

L457 356

L457 355

L457 354

L459 354

L461 353

L461 354

L460 355

L463 356

C464 356 468 357 470 357

C472 358 477 358 479 359

L484 359

L484 358

L484 356

L485 356

L486 356

L486 357

L487 358

L488 358

L490 357

L490 356

L489 355

L490 356

L492 356

L492 355

L492 354

L493 354

C493 355 496 354 498 353

L503 351

L503 350

L502 349

L504 350

L505 350

L506 348

L506 346

L507 347

L508 347

L510 346

L511 345

L510 344

L510 343

L511 342

C512 342 513 342 514 342

L516 342

L515 340

L515 338

L516 338

L517 338

L516 342

L516 346

L517 346

L518 345

L518 346

L519 347

L518 347

L517 347

L517 349

L517 350

L518 350

L519 350

L518 352

L518 354

L519 354

L520 354

L519 356

C519 358 519 359 520 360

L522 362

L521 363

C520 363 520 365 521 368

L523 372

L524 371

L525 371

L524 372

L523 374

L524 374

L526 374

L525 376

L525 377

L526 377

L527 377

L526 379

L526 381

L527 382

L529 382

L528 383

C528 384 528 386 529 388

L530 391

L531 391

L532 390

L531 393

L531 395

L532 395

L534 395

L534 396

L534 398

L537 398

L541 399

L541 402

C541 404 541 406 541 407

L542 408

L537 408

L532 408

L532 414

C532 417 532 420 532 421

L532 422

L537 421

C540 421 543 420 544 419

L546 418

L547 420

L549 423

L550 422

L551 422

L550 423

C550 424 551 425 552 426

L553 428

L554 427

L555 427

L555 428

L556 429

L555 429

L554 429

L556 431

C556 432 558 433 558 433

C560 433 565 438 565 440

C565 440 566 442 567 443

L570 445

L571 444

L572 444

L572 445

L571 446

L572 447

L574 448

L575 448

L576 447

L576 449

L577 451

L578 451

L580 450

L580 452

L580 453

L582 453

L583 452

L583 454

L583 455

L585 455

L586 454

L586 455

L585 456

L588 458

L591 460

L592 459

C592 459 593 458 594 458

C595 458 597 458 599 457

L602 456

L603 458

C604 459 604 462 604 463

L603 466

L605 466

L607 465

L606 467

L606 468

L601 468

L596 468

L595 473

C595 476 595 478 595 479

C595 479 598 479 601 479

L607 479

L607 476

C607 475 607 473 608 472

C608 470 608 469 608 468

L608 466

L609 466

L610 466

L610 468

L610 469

L611 468

L613 467

L613 469

L614 470

L616 470

C617 469 620 470 623 471

L628 472

L628 473

L628 474

L630 473

L632 473

L632 474

L632 475

L633 474

L635 473

L636 474

L636 475

L634 477

C633 477 631 478 630 478

L627 478

L627 484

L627 490

L629 490

L631 490

L629 491

C627 492 627 493 627 498

L627 504

L632 504

L637 504

L637 503

L637 502

L639 502

L640 502

L639 497

C639 492 639 492 635 491

L632 490

L635 490

L639 490

L639 488

C641 483 640 481 638 480

L636 479

L637 478

L638 478

L638 476

L638 475

L639 475

L640 475

L640 476

L640 477

L643 476

L645 476

L645 477

L645 478

L648 477

L650 477

L650 478

L650 479

L653 478

L656 478

L656 479

L656 480

L658 480

L660 481

L660 480

L660 479

L663 479

L665 479

L665 481

L665 482

L667 482

L668 482

L668 481

L668 480

L669 480

L670 480

L670 482

L669 483

L671 483

C672 483 675 484 677 486

C680 488 682 489 683 489

L684 490

L683 491

L683 493

L686 493

C688 493 690 492 691 492

L692 491

L692 493

L692 495

L691 495

L690 494

L690 498

C690 500 690 504 690 507

L690 512

L689 512

L688 512

L689 514

L689 516

L688 516

C688 516 686 517 685 519

L684 522

L684 523

L685 523

L684 525

L683 526

L681 525

L680 525

L680 526

L680 527

L678 527

L675 527

L675 526

L675 525

L673 525

C671 525 669 529 669 532

L669 535

L665 534

L661 534

L661 535

L661 536

L660 536

L658 536

L658 535

L658 534

L656 534

L654 534

L654 536

L654 537

L653 537

C653 537 652 536 651 536

L650 535

L649 536

C648 537 647 538 645 537

L642 537

L642 538

L643 539

L641 538

L639 538

L639 539

L639 540

L637 540

L636 539

L635 540

L634 542

L633 540

L632 539

L630 540

L627 540

L627 542

L628 543

L627 543

L626 543

L626 542

L625 541

L621 542

L618 544

L618 545

L618 546

L616 545

L615 545

L614 547

L612 548

L611 548

L611 547

L609 549

L608 550

L607 549

C606 549 604 550 602 551

L598 552

L599 553

L599 554

L597 553

L596 553

L596 554

L597 555

L596 554

C595 554 593 555 591 556

L588 558

L588 559

L588 560

L586 559

L585 559

L585 560

L585 562

L584 562

C583 561 579 563 579 565

L579 566

L577 565

L576 565

L575 567

L575 569

L574 568

L572 568

L571 569

L570 571

L571 571

L571 571

L570 572

L569 574

L568 573

C566 573 556 583 556 585

L557 586

L556 586

C555 586 554 587 553 588

L551 589

L551 591

L552 592

L551 592

L550 591

L549 592

L548 594

L548 595

L549 596

L548 596

L547 596

L547 597

L547 599

L546 599

L545 599

L545 600

L545 602

L544 601

L543 601

L542 603

C541 604 541 605 542 606

L542 607

L541 607

L540 607

L536 614

C534 618 532 622 532 623

C532 624 532 625 531 626

C530 627 529 629 529 630

L530 632

L529 632

L528 632

L528 633

L529 635

L528 635

C528 635 527 635 527 635

L526 635

L527 637

L528 638

L527 638

L526 638

L524 644

C523 647 522 651 522 654

L522 658

L521 658

L520 658

L520 661

L521 663

L520 663

L519 663

L519 666

L520 668

L519 668

L517 668

L517 669

C517 669 518 670 518 671

L520 672

L518 673

C517 674 516 675 516 676

L516 677

L517 677

L518 677

L518 678

L518 679

L517 679

L516 678

L516 679

C515 679 516 681 516 682

L518 684

L516 685

L515 686

L516 689

L516 693

L515 693

L514 693

L514 697

L515 701

L514 701

L512 701

L512 703

L512 704

L513 704

L514 704

L514 705

L514 706

L513 706

L511 705

L510 708

C510 710 510 712 510 713

L509 714

L509 714

C508 714 507 715 506 716

C504 717 501 719 498 720

L494 722

L494 723

L494 724

L489 724

L484 724

L484 723

Z

M491 594

C491 593 491 592 492 591

C493 589 494 588 494 587

L493 586

L494 586

L495 587

L496 584

L497 582

L496 582

L495 583

L496 582

L496 580

L498 580

L499 580

L499 578

C500 578 500 576 499 576

L499 575

L500 576

L502 576

L502 574

C502 573 502 572 502 571

L503 570

L504 570

C504 570 506 568 507 567

L508 565

L507 564

L507 563

L508 563

L510 563

L510 561

L510 560

L511 560

L513 559

L513 558

L513 556

L515 555

C516 555 517 554 518 553

L519 551

L519 550

L518 549

L520 548

L521 547

L521 548

L521 548

L527 543

C530 540 533 536 535 534

C536 532 538 530 539 530

L540 531

L541 528

L543 526

L544 527

L545 527

L546 525

L547 524

L548 524

L550 524

L550 522

L550 521

L551 521

L553 521

L553 520

L553 518

L555 519

L556 519

L556 518

L556 516

L557 516

C557 517 559 517 559 516

L561 516

L561 514

L561 513

L562 513

C563 514 564 513 566 513

C568 511 569 510 569 508

L569 506

L568 506

C567 506 566 506 565 506

L564 506

L564 505

L564 503

L562 503

C562 502 560 502 560 502

L559 503

L559 501

C558 500 557 499 555 498

L552 496

L551 497

L550 498

L550 496

L550 494

L548 494

L547 494

L546 492

L545 490

L544 490

L542 491

L542 490

C542 489 541 488 541 487

L540 486

L538 486

L537 487

L536 485

C535 484 534 483 534 482

C534 481 527 475 523 472

L520 470

L521 469

L521 468

L520 466

C519 465 518 464 517 464

L515 463

L515 461

L515 460

L513 460

L512 460

L512 458

L512 456

L510 456

L509 456

L509 454

L510 453

L508 453

C507 452 505 450 506 448

L506 447

L505 447

L503 447

L503 445

L504 444

L502 444

L501 444

L502 442

L502 441

L501 441

L499 441

L499 439

L498 438

L499 439

L500 439

L500 439

C500 438 500 437 499 437

L499 435

L498 436

L496 436

L495 433

C495 432 494 430 495 430

L495 429

L494 429

L493 430

L492 427

C491 425 491 423 491 422

L491 421

L490 421

C489 421 488 421 488 421

L487 421

L488 419

C489 418 490 416 491 414

C492 408 489 406 483 406

L479 406

L478 408

C478 410 478 413 478 416

L479 422

L481 422

C483 422 484 422 484 422

L485 423

L483 427

C482 429 481 431 481 432

L482 433

L481 433

L480 433

L480 434

C480 434 480 435 480 436

L480 437

L479 437

L477 437

L477 439

C476 439 476 441 477 441

L477 442

L476 442

L475 441

L474 443

C473 444 473 445 474 446

L474 447

L473 447

L471 447

L471 449

L472 450

L470 451

L469 451

L469 452

L469 454

L468 454

L467 454

L466 456

L466 458

L465 458

C465 458 464 458 463 458

L462 459

L462 460

L463 461

L461 463

C459 463 458 464 458 465

C458 466 458 467 458 468

L457 469

L456 469

L455 468

L449 475

C445 479 441 483 441 484

L439 487

L438 486

C436 486 434 488 434 490

L434 493

L433 491

L432 490

L431 491

C430 492 429 493 429 493

L430 494

L428 494

L426 495

L426 496

L426 497

L424 497

L423 497

L423 498

L423 499

L421 499

L420 499

L420 500

L420 501

L418 501

L417 501

L417 502

L417 503

L416 503

C416 502 414 502 414 503

L412 503

L412 504

C412 505 411 506 410 507

C408 508 407 509 407 510

L407 512

L409 512

L411 511

L411 512

L410 513

L412 513

L413 514

L413 513

L412 512

L413 513

L415 513

L415 515

L415 516

L416 516

L418 515

L418 516

L418 518

L419 517

L421 517

L421 518

L420 519

L427 523

L433 528

L434 528

L434 527

L435 529

C436 530 437 532 439 532

C440 532 441 533 442 534

C443 537 454 548 456 549

L458 550

L458 552

C458 553 459 554 461 554

C462 555 463 556 463 557

C463 558 464 559 465 560

L467 561

L466 561

L466 562

L468 564

C468 566 470 567 471 567

L472 567

L472 569

L472 571

L473 570

L474 570

L473 572

L473 574

L474 574

L476 573

L476 574

C475 574 475 576 476 576

L476 578

L478 578

L479 578

L478 580

L478 581

L479 581

L480 580

L480 581

C479 582 481 587 483 587

L484 587

L484 589

L483 590

L484 589

L485 589

L485 590

L484 592

L485 592

L486 591

L487 594

L488 596

L490 595

L491 595

L491 594

Z

M639 525

C639 524 639 522 639 519

L639 515

L633 515

L627 515

L627 521

L627 526

L633 526

L639 526

L639 525

Z

M659 510

L659 503

L655 503

C652 503 649 503 649 504

L647 504

L647 509

C647 514 648 516 654 516

L659 516

L659 510

Z

M585 486

C586 479 585 477 579 477

L574 477

L574 479

L574 480

L573 480

L571 480

L571 485

C571 491 572 492 579 492

L585 492

L585 486

Z

M544 462

L544 456

L538 456

L532 456

L532 462

L532 467

L538 467

L544 467

L544 462

Z

M532 456

C532 455 533 452 533 450

C534 446 533 445 531 443

C530 443 528 442 526 442

L524 443

L524 442

L523 441

L523 442

L523 444

L522 444

L521 444

L521 437

L521 430

L516 430

C510 430 509 431 509 437

C509 442 510 444 515 444

L519 444

L519 446

C519 447 519 449 519 451

L519 455

L521 455

L522 455

L522 457

L521 458

L526 458

C528 458 531 457 532 456

Z

M498 434

C498 433 497 433 496 432

L495 431

L496 432

C497 433 497 434 498 434

L498 434

L498 434

Z

M531 417

L530 416

L530 417

L530 419

L531 419

L531 418

L531 417

Z

M521 403

L521 396

L516 396

C510 396 509 398 508 403

L508 407

L509 407

L511 407

L511 409

L510 410

L515 410

L521 410

L521 403

Z

M510 370

L510 368

L511 368

L512 368

L512 370

L513 372

L512 367

C512 361 509 359 504 359

L500 359

L500 366

L500 372

L505 372

L510 372

L510 370

Z

M693 544

L693 539

L697 539

C699 539 701 539 702 539

L702 540

L701 540

C701 541 701 543 701 545

L701 549

L697 549

L693 549

L693 544

Z

M694 512

C693 511 693 507 694 505

C694 505 695 504 697 504

L699 503

L700 505

C701 506 701 508 701 510

L701 513

L697 513

C696 513 694 513 694 512

Z

M690 502

C690 502 690 501 691 501

L692 500

L692 501

L692 503

L691 503

L690 503

L690 502

Z

M704 496

L705 492

L708 492

C710 492 712 491 713 490

L715 489

L714 486

L713 483

L714 482

L716 481

L714 481

L713 481

L713 480

L713 479

L718 479

L724 480

L724 485

L724 491

L718 491

L713 491

L713 492

C713 493 713 495 713 497

L713 501

L708 501

L704 501

L704 496

Z

M670 474

L670 470

L676 469

L681 469

L681 474

L681 479

L680 478

L679 478

L680 477

L680 476

L679 476

L678 476

L678 477

L677 478

L674 479

L670 479

L670 474

Z

M629 465

C628 464 627 463 627 462

C627 460 631 457 633 457

C635 457 636 457 637 457

L638 456

L638 457

L638 458

L637 458

L636 458

L636 462

L636 466

L633 466

C632 466 630 466 629 465

Z

M662 465

C661 465 661 463 661 461

L661 458

L663 457

C663 457 665 457 667 457

L669 458

L669 461

L669 465

L667 465

C665 466 662 466 662 465

Z

M694 465

C693 464 693 459 694 458

C695 458 696 457 698 457

L700 457

L701 460

C702 463 701 466 697 466

C696 466 694 466 694 465

Z

M626 455

C625 454 623 454 620 454

L616 454

L616 449

L616 444

L611 444

L607 444

L607 444

C607 442 607 434 607 433

L606 432

L611 432

L616 432

L615 433

C614 435 615 442 616 443

C616 444 619 444 622 444

L627 444

L627 450

L627 456

L627 456

C626 456 626 456 626 455

Z

M574 443

C573 443 573 440 573 437

L573 432

L578 432

C582 432 584 431 585 431

L586 429

L585 429

L584 428

L585 425

L586 423

L589 422

C591 422 593 422 594 422

L595 421

L595 422

L595 424

L594 424

L593 424

L593 426

L593 427

L594 427

L595 427

L595 430

L595 432

L594 432

L593 432

L593 431

L593 429

L590 431

C588 432 586 433 585 432

L584 432

L584 438

L584 444

L579 444

C576 444 574 444 574 443

Z

M713 443

L713 442

L714 442

L715 442

L714 441

C713 440 713 438 714 437

C715 435 714 434 714 433

L713 432

L718 432

L724 433

L724 438

L724 444

L718 444

L713 444

L713 443

Z

M643 432

L640 432

L639 429

C639 428 639 425 639 424

L640 422

L643 422

L647 423

L647 428

L647 433

L647 433

C647 433 645 432 643 432

Z

M562 431

L562 430

L563 430

L565 431

L564 429

C564 428 564 425 564 424

L565 420

L568 420

L572 420

L572 424

C572 429 570 432 566 432

C565 432 563 431 562 431

Z

M262 424

C261 423 259 423 258 423

L256 424

L256 423

L257 422

L256 421

L254 420

L253 420

L252 421

L251 420

L250 418

L251 418

L251 417

L249 413

L246 409

L246 409

L245 410

L246 409

C247 408 247 407 247 407

L247 406

L245 406

L244 406

L245 402

L245 398

L244 398

L243 398

L243 395

L244 391

L243 391

L242 391

L242 386

L243 381

L241 381

L240 381

L240 380

L240 379

L241 379

L242 378

L241 377

L241 375

L240 376

L239 376

L240 375

L241 373

L240 372

L238 372

L239 370

L239 368

L238 368

L237 368

L238 367

L238 365

L237 365

L236 365

L237 364

L237 362

L236 362

L235 362

L236 361

L236 359

L235 359

L234 359

L235 357

L235 355

L234 355

L233 356

L234 354

C234 352 230 343 228 342

L227 342

L228 341

L228 340

L227 340

L226 340

L227 339

L227 338

L226 338

L225 338

L226 336

L226 335

L225 335

L224 336

L224 335

C225 335 225 333 224 332

L223 330

L222 330

L221 331

L221 329

L222 328

L220 328

L219 328

L219 326

L220 325

L218 325

L217 325

L218 324

L218 323

L217 321

L216 320

L215 321

L214 321

L214 320

L215 319

L213 317

L212 315

L211 316

L210 316

L207 313

C205 311 204 309 204 309

C204 307 201 304 199 304

L198 305

L198 303

C197 301 188 295 186 295

L185 296

L185 295

L186 294

L181 291

C178 290 175 289 174 289

L173 290

L174 289

L174 288

L170 286

C168 286 166 285 165 285

L163 286

L164 285

L164 284

L162 284

L160 285

L161 284

L161 283

L159 283

L156 284

L156 283

L157 282

L154 281

C153 280 151 280 150 281

L149 282

L148 281

L147 280

L146 281

L144 281

L144 280

L144 279

L141 280

L138 280

L138 279

L138 278

L135 279

L131 279

L131 278

L130 276

L128 276

L126 276

L126 277

L126 278

L125 278

L123 278

L123 277

L123 275

L119 274

C116 274 114 274 114 274

C113 274 112 273 112 272

C111 271 110 270 109 269

L108 269

L108 267

L108 266

L106 266

L105 266

L106 264

L106 263

L105 263

L104 264

L105 263

C105 262 105 261 105 259

L105 257

L103 257

L102 257

L102 253

L102 249

L104 249

L105 250

L105 249

C105 249 104 248 104 247

L103 246

L104 247

L105 247

L105 245

L104 243

L105 244

L106 244

L106 243

L105 241

L106 241

C106 241 108 240 110 238

L113 234

L112 234

L112 233

L113 233

C114 233 117 233 120 233

L125 232

L124 231

L123 230

L123 229

L124 229

L126 230

C127 230 129 231 130 231

L131 231

L132 229

L132 228

L136 229

L139 229

L139 228

L139 227

L142 228

L144 228

L144 227

L144 226

L147 227

L149 227

L149 226

L149 225

L150 226

L151 226

L152 224

L154 223

L154 224

L155 226

L156 225

L157 225

L156 224

L156 223

L157 224

C158 224 159 224 162 224

L166 223

L166 221

L165 220

L166 221

L168 222

L168 221

C168 221 168 220 168 220

L168 219

L170 220

C171 220 173 219 175 218

C177 215 178 215 180 215

L181 215

L181 214

L181 213

L182 214

C183 214 186 212 190 210

L196 206

L195 205

L195 204

L196 205

L198 205

L200 202

L203 200

L201 201

L200 201

L201 200

L202 198

L203 199

L205 199

L208 196

C209 194 211 192 211 191

C211 190 212 189 213 189

L216 187

L215 186

L215 184

L216 184

L217 185

L218 184

L219 182

L219 181

L218 180

L219 180

L221 181

L220 179

L220 177

L221 178

L222 178

L223 176

C224 175 224 173 223 173

L223 172

L224 172

L225 173

L228 168

C229 165 230 162 230 162

L229 161

L231 159

C232 159 232 157 232 156

L233 153

L233 154

L234 154

L234 152

L233 150

L234 150

L235 150

L235 149

L234 147

L236 147

L237 147

L236 145

L235 144

L236 144

L237 145

L238 142

L239 140

L238 139

L237 139

L237 138

L237 137

L239 137

L240 137

L239 135

L238 134

L239 134

L240 135

L240 132

L239 129

L240 129

L241 129

L241 127

L240 125

L241 125

L242 125

L242 123

L241 120

L242 120

L243 120

L243 117

C242 116 242 114 243 113

C244 113 245 111 245 111

L245 110

L244 110

L243 110

L243 108

L243 107

L245 107

L246 108

L246 105

L246 103

L245 103

L244 103

L244 102

L244 101

L246 101

L247 101

L247 100

L247 99

L246 99

L245 98

L246 97

L247 95

L247 95

L248 96

L251 91

L255 87

L254 86

L254 86

L255 86

C255 87 257 87 258 86

L261 85

L261 84

L260 83

L261 83

L262 83

L262 84

L263 86

L264 84

C266 82 268 82 270 84

L271 85

L273 84

L274 83

L274 84

L274 86

L276 85

L279 85

L278 86

L278 87

L279 88

L281 89

L282 89

L283 88

L284 89

C284 90 284 91 285 92

C285 92 285 94 286 96

L288 100

L289 99

L290 99

L290 100

L290 101

L289 101

L288 101

L288 103

L288 104

L290 104

L291 104

L290 108

L290 111

L291 111

L292 111

L291 115

L291 118

L292 118

L293 118

L292 120

L292 122

L293 123

L295 124

L293 125

L292 126

L293 129

L294 133

L295 132

L296 132

L296 134

L295 136

L296 136

L297 136

L297 138

L296 140

L297 140

L298 140

L297 142

L297 143

L298 143

L299 143

L298 145

L298 147

L299 146

L301 146

L299 147

C299 148 299 149 299 151

L300 153

L301 153

L302 152

L302 155

L302 158

L303 157

L304 157

L303 158

C303 159 303 160 304 162

L305 165

L306 164

L307 164

L306 166

L306 167

L307 167

L308 166

L307 168

L307 169

L308 169

L309 168

L308 170

L308 171

L309 171

L310 170

L309 171

C309 172 311 175 313 179

L317 185

L318 184

L319 184

L318 185

L318 187

L320 189

C321 190 322 191 323 191

L323 191

L324 192

C324 194 330 200 331 200

L333 200

L333 201

C333 201 334 202 335 203

L336 205

L338 205

L339 204

L339 205

L338 206

L340 207

L341 208

L342 207

L343 206

L343 208

L343 210

L344 209

L346 209

L345 210

L345 211

L347 212

C348 213 350 213 350 212

L351 212

L350 213

L350 214

L351 214

L353 213

L353 214

L352 215

L357 218

C359 219 363 220 365 220

L368 221

L367 221

L367 222

L369 222

C370 223 371 223 372 223

L373 222

L373 223

L373 224

L375 224

L376 223

L376 224

L375 225

L380 227

L384 228

L385 227

L385 226

L386 226

L387 226

L387 229

L386 232

L387 232

L389 233

L387 233

L385 233

L385 235

L386 237

L384 237

L383 238

L383 240

L384 242

L383 241

L382 241

L382 243

L383 246

L382 246

L381 246

L382 249

L382 252

L381 252

L380 252

L380 257

L380 262

L381 262

L383 263

L381 264

C380 266 381 270 383 272

L384 273

L384 274

L383 275

L384 275

C384 275 385 276 386 277

L387 280

L385 279

L384 279

L384 280

L384 282

L381 281

L379 281

L380 282

L380 284

L379 282

C377 281 374 282 367 285

L364 286

L365 287

L365 288

L364 287

C362 287 356 290 356 291

L356 292

L355 292

C355 291 353 291 353 292

L351 292

L352 293

L352 294

L351 294

C351 293 349 293 348 294

L346 295

L347 296

L347 297

L346 297

C345 296 338 300 338 302

L338 303

L337 302

L335 302

L334 303

C334 304 334 305 333 306

L333 307

L332 306

C330 306 323 313 323 315

L324 316

L323 316

C322 316 321 317 320 318

L318 319

L318 321

L319 322

L318 322

L317 321

L314 324

C313 326 312 329 312 330

L313 331

L312 331

L311 330

L310 333

C309 335 308 337 309 337

L309 338

L308 337

L307 337

L307 338

L308 340

L307 339

L306 339

L306 340

L307 342

L306 342

L305 341

L305 343

C304 344 304 345 304 346

L305 347

L304 347

C303 347 299 355 297 363

C296 367 295 368 296 369

L298 370

L296 369

L295 369

L295 371

L296 374

L295 373

L294 373

L294 376

L295 379

L294 379

L293 379

L293 382

L294 384

L293 384

L292 384

L292 387

L293 389

L292 389

L291 389

L291 393

L292 396

L291 396

L290 396

L290 398

C289 399 289 400 290 400

C291 401 291 402 291 403

L291 405

L290 405

L288 406

L288 408

C288 408 287 411 286 413

C285 415 284 418 285 418

L285 419

L284 420

C283 420 282 420 282 421

C281 421 279 421 277 422

C272 425 265 425 262 424

Z

M268 314

L268 313

L269 314

L270 314

L270 313

L269 311

L270 311

L271 311

L271 310

C271 310 271 309 271 308

L271 307

L272 307

L274 307

L274 305

C275 305 275 303 274 303

L274 302

L276 302

L277 302

L277 301

L276 299

L278 299

L279 299

L279 298

L278 296

L280 296

L281 296

L281 295

L280 293

L282 293

L284 292

L284 291

L284 290

L284 290

C285 290 286 289 287 288

L289 286

L289 284

L288 283

L291 282

C294 280 298 276 299 273

C300 272 301 271 302 271

C304 271 305 269 306 268

L307 266

L307 267

L308 267

L309 266

L311 265

L310 264

L310 263

L311 263

C311 264 313 263 314 262

L317 261

L316 260

L316 259

L317 260

L319 260

L319 259

L319 257

L321 258

L322 258

L322 257

L322 255

L324 255

L326 254

L326 253

L326 252

L325 252

L323 253

L323 251

L323 250

L322 250

L320 251

L320 250

L321 249

L319 249

L317 249

L317 248

L318 247

L316 247

L314 247

L314 246

L315 245

L313 245

L312 245

L311 243

L310 241

L308 241

L307 242

L307 241

C307 240 306 239 305 238

L303 236

L302 236

L301 237

L300 235

C299 234 298 233 298 232

C297 231 295 229 293 228

C291 226 289 224 289 223

L290 222

L288 221

C286 220 286 219 286 218

C286 217 285 216 284 216

C282 215 282 214 282 213

L282 212

L280 212

L279 212

L279 211

C280 211 279 209 278 208

L277 205

L276 206

L275 206

L275 205

C276 205 276 203 275 203

L275 201

L273 201

L272 201

L272 200

C272 199 272 198 272 198

C272 197 271 196 271 194

L269 191

L269 192

L269 193

L268 192

L266 192

L266 193

L266 194

L265 194

L263 193

L262 197

L260 201

L261 200

L262 200

L261 201

L261 203

L260 203

L258 203

L258 205

L257 206

L258 206

L259 205

L258 206

C258 207 257 208 256 208

L254 209

L255 210

L256 211

L254 211

L252 212

L253 213

L255 214

L252 214

L250 214

L250 216

L249 217

L250 217

L251 217

L250 218

L250 219

L249 219

L248 218

L247 220

L245 222

L245 223

L246 224

L242 226

C238 229 235 232 234 235

C233 236 232 237 231 237

C229 237 228 238 228 240

L226 242

L225 241

L224 241

L223 243

L223 245

L222 244

C221 244 217 246 217 248

L217 249

L215 249

L214 249

L214 250

L214 251

L213 251

C213 250 211 250 211 251

L209 251

L209 253

L209 254

L211 255

L212 255

L212 257

L212 258

L214 258

L215 257

L215 258

C215 260 219 262 220 261

L221 261

L221 262

L220 263

L221 264

L222 264

L223 263

L224 262

L224 264

L223 266

L225 266

C225 267 227 267 227 266

L228 266

L228 267

L227 268

L229 269

L231 271

L232 271

L233 270

L235 274

C238 278 240 280 243 282

L246 283

L245 284

C245 286 248 290 250 289

L251 289

L250 291

L250 292

L252 293

L254 294

L254 295

L254 297

L255 296

L256 296

L256 298

L256 300

L257 299

L258 299

L257 301

L257 302

L258 302

L260 302

L260 303

C259 304 261 309 263 309

L264 309

L264 310

C264 311 264 312 264 313

L264 315

L266 315

L268 315

L268 314

Z

M557 420

L552 420

L553 419

C554 417 554 411 553 409

L552 408

L557 408

L562 408

L561 409

C561 410 561 412 560 414

C560 417 561 418 562 420

L564 421

L563 421

C563 421 560 420 557 420

Z

M597 418

C595 417 596 412 597 411

C598 410 600 410 601 410

L604 411

L604 413

C604 415 604 417 603 418

C602 419 598 420 597 418

Z

M564 403

L564 399

L565 398

C566 398 568 398 570 398

L572 399

L572 402

C572 404 569 408 566 408

L564 408

L564 403

Z

M538 383

L538 382

L536 382

L534 382

L533 377

L532 372

L537 372

L542 372

L541 373

C541 374 541 376 541 378

C541 380 541 382 541 383

L542 384

L540 384

L538 384

L538 383

Z

M534 358

C534 358 533 356 533 355

C532 352 534 350 538 350

L541 351

L541 355

L541 359

L538 359

C537 359 535 359 534 358

Z

M469 349

C459 346 456 343 425 311

C396 281 393 278 391 272

C388 264 387 254 389 246

C391 240 396 230 397 230

C397 230 422 254 451 284

L505 338

L504 340

C502 341 498 344 494 346

C488 349 486 349 480 350

C475 350 471 349 469 349

Z

M594 347

L593 346

L591 347

C590 347 588 347 586 346

L584 345

L584 342

L584 338

L588 338

C591 338 593 338 594 338

L595 337

L595 339

L595 342

L594 342

L593 342

L593 343

L593 345

L594 345

L595 346

L595 347

L594 348

L594 347

Z

M545 343

L545 339

L548 338

C551 338 552 339 552 343

L552 346

L548 346

L545 346

L545 343

Z

M505 327

L499 321

L501 319

C502 317 512 306 531 286

L535 281

L541 287

C544 290 547 293 547 293

C547 293 543 297 539 302

C535 307 531 311 531 311

C531 311 526 316 521 322

L511 333

L505 327

Z

M457 280

C438 261 422 244 421 243

L419 241

L437 221

L456 201

L493 238

L530 275

L526 279

C515 292 494 315 493 315

C493 315 477 299 457 280

Z

M498 233

C468 203 444 179 444 178

C444 177 462 157 475 144

C480 139 492 126 502 115

C512 104 521 94 523 93

C527 90 535 89 541 91

C545 92 549 95 581 127

C601 147 619 165 622 168

C630 175 633 182 633 190

C633 196 633 198 630 202

C628 206 610 226 565 275

C558 282 553 288 552 288

C552 288 528 263 498 233

Z

M408 230

L402 224

L404 221

C406 220 414 211 422 201

L438 184

L444 190

C447 193 450 196 450 196

C450 197 431 218 417 232

L413 236

L408 230

Z

"/>

<path fill="#2b3537" stroke="none" d="
M462 690

L462 689

L463 690

L463 691

L463 692

L462 692

L462 690

Z

M535 533

C535 532 536 532 537 531

L539 530

L537 531

C536 532 536 533 535 533

L535 533

L535 533

Z

M627 526

L626 525

L630 526

C633 526 635 526 636 526

L638 527

L632 527

C629 527 627 527 627 526

Z

M676 526

C677 526 679 526 679 526

L681 527

L678 527

L675 527

L676 526

Z

M629 514

C631 514 633 514 635 514

L638 515

L632 515

L627 515

L629 514

Z

M659 509

L659 504

L660 506

C660 508 660 510 660 512

L659 515

L659 509

Z

M689 508

L689 503

L690 505

C690 507 690 509 690 510

L689 513

L689 508

Z

M406 509

C406 509 406 508 407 508

L408 507

L407 508

L407 510

L406 510

L406 510

L406 509

Z

M691 501

L691 500

L692 501

L692 502

L692 503

L691 503

L691 501

Z

M691 493

L691 491

L692 492

C692 492 692 494 692 494

L691 496

L691 493

Z

M718 490

L723 490

L723 485

L723 480

L718 480

L713 479

L718 479

L724 480

L724 485

L724 491

L719 491

L714 491

L718 490

Z

M536 485

L535 484

L536 485

C537 486 538 486 538 487

L538 487

L538 487

C537 487 537 486 536 485

Z

M314 480

L315 480

L316 480

L316 481

L314 481

L313 481

L314 480

Z

M595 479

L594 478

L595 479

L597 479

L597 480

L597 480

L596 480

C596 480 595 480 595 479

Z

M680 474

L680 469

L681 471

C681 473 681 475 681 477

L680 480

L680 474

Z

M670 474

L670 469

L671 471

C671 473 671 475 671 476

L670 479

L670 474

Z

M594 472

L594 467

L595 467

L596 467

L595 471

C595 473 595 475 595 476

L594 478

L594 472

Z

M634 474

L634 473

L635 474

C636 474 636 474 636 475

L636 475

L635 475

L634 475

L634 474

Z

M531 467

C531 466 531 463 531 461

L532 457

L532 462

L532 467

L536 467

L540 468

L536 468

L532 468

L531 467

Z

M599 467

C600 467 602 467 603 467

L606 468

L601 468

L597 468

L599 467

Z

M534 455

C536 455 538 455 540 455

L543 456

L537 456

L532 456

L534 455

Z

M616 451

L616 447

L617 449

C617 450 617 452 617 453

L616 455

L616 451

Z

M626 449

L626 444

L627 446

C627 448 627 450 627 452

L626 455

L626 449

Z

M608 444

C608 443 610 443 612 443

L616 444

L611 444

L607 445

L608 444

Z

M576 443

C577 443 579 443 580 443

L583 444

L578 444

L574 444

L576 443

Z

M718 443

L723 443

L723 438

L724 433

L724 438

L724 444

L718 444

L713 444

L718 443

Z

M408 443

C408 442 409 442 410 441

L412 440

L410 441

C409 442 409 443 408 443

L408 443

L408 443

Z

M521 438

L521 433

L522 435

C522 437 522 439 522 441

L521 444

L521 438

Z

M573 437

L573 432

L579 432

L584 432

L584 437

L584 443

L583 438

L583 433

L579 433

L574 433

L574 438

L573 443

L573 437

Z

M412 439

C412 439 413 437 415 435

L419 433

L416 436

C414 438 412 439 412 439

L412 439

L412 439

Z

M562 436

L561 435

L562 436

C563 437 564 437 564 438

L564 438

L564 438

C563 438 563 437 562 436

Z

M609 432

C611 432 613 432 614 432

L617 433

L612 433

L607 433

L609 432

Z

M594 430

L594 427

L595 428

C595 429 595 431 595 431

L594 433

L594 430

Z

M594 422

L594 421

L595 422

L595 423

L595 424

L594 424

L594 422

Z

M282 421

C282 420 283 420 284 419

L286 418

L284 419

C283 420 283 421 282 421

L282 421

L282 421

Z

M557 420

L552 419

L557 419

C560 419 562 419 563 420

L563 421

L563 421

C563 421 560 420 557 420

Z

M477 417

L477 415

L478 416

C478 416 478 418 478 418

L477 420

L477 417

Z

M531 414

L531 408

L532 411

C532 413 532 415 532 417

L531 420

L531 414

Z

M555 408

C556 408 558 408 558 408

L560 409

L557 409

L554 409

L555 408

Z

M244 404

L244 403

L245 404

L245 405

L245 406

L244 406

L244 404

Z

M290 403

L290 402

L291 403

L291 404

L291 405

L290 405

L290 403

Z

M539 383

C539 383 541 383 541 383

L543 384

L540 384

L538 384

L539 383

Z

M535 372

C536 372 538 372 539 372

L542 373

L537 373

L533 373

L535 372

Z

M499 367

L499 361

L500 364

C500 366 500 368 500 370

L499 373

L499 367

Z

M510 370

L510 368

L511 369

C511 369 511 371 511 371

L510 373

L510 370

Z

M510 361

L509 360

L510 360

L511 360

L511 361

L511 362

L511 362

C510 362 510 362 510 361

Z

M469 349

C459 346 456 343 425 311

C396 281 393 278 391 272

C388 264 387 254 389 246

C391 240 396 230 397 230

C397 230 422 254 451 284

L505 338

L504 340

C502 341 498 344 494 346

C488 349 486 349 480 350

C475 350 471 349 469 349

Z

M594 346

L594 345

L595 346

L595 347

L595 348

L594 348

L594 346

Z

M594 340

L594 338

L595 339

C595 339 595 341 595 341

L594 343

L594 340

Z

M505 327

L499 321

L501 319

C502 317 513 306 531 286

L535 281

L541 287

L547 293

L545 296

C521 322 511 333 511 333

C511 333 508 330 505 327

Z

M207 313

L205 311

L205 310

L206 310

L208 313

L210 315

L209 315

C209 315 208 314 207 313

Z

M456 278

L419 241

L437 221

L456 201

L493 238

L530 275

L526 279

C515 292 494 315 493 315

C493 315 476 298 456 278

Z

M498 233

C468 203 444 179 444 178

C444 177 462 157 475 144

C480 139 492 126 502 115

C512 104 521 94 523 93

C527 90 535 89 541 91

C545 92 549 96 587 133

C632 178 633 179 633 190

C633 196 633 198 630 202

C628 206 610 226 565 275

C558 282 553 288 552 288

C552 288 528 263 498 233

Z

M102 253

L102 249

L103 251

C103 252 103 254 103 255

L102 258

L102 253

Z

M300 235

L299 234

L300 235

C301 236 302 236 302 237

L302 237

L302 237

C301 237 301 236 300 235

Z

M408 230

L402 224

L404 221

C406 220 414 211 422 201

L438 184

L444 190

C447 193 450 196 450 196

C450 197 431 218 417 232

L413 236

L408 230

Z

M266 191

L266 190

L267 190

L268 190

L268 191

L268 192

L267 192

L266 192

L266 191

Z

M283 89

L282 88

L283 89

C284 90 285 90 285 91

L285 91

L285 91

C284 91 284 90 283 89

Z

M266 82

C266 82 268 82 268 82

L270 83

L267 83

L265 83

L266 82

Z

"/>

<path fill="#454545" stroke="none" d="
M676 526

C676 526 678 526 678 526

L680 527

L677 527

L675 527

L676 526

Z

M689 510

L689 508

L690 509

C690 509 690 511 690 511

L689 513

L689 510

Z

M691 493

L691 491

L692 492

C692 492 692 494 692 494

L691 496

L691 493

Z

M723 485

L723 481

L724 483

C724 484 724 486 724 487

L723 490

L723 485

Z

M314 480

L315 480

L316 480

L316 481

L314 481

L313 481

L314 480

Z

M715 479

C717 479 719 479 721 479

L724 480

L718 480

L713 480

L715 479

Z

M670 474

L670 470

L671 472

C671 473 671 475 671 476

L670 478

L670 474

Z

M594 469

C594 469 594 468 595 468

L596 467

L595 468

L595 470

L594 470

L594 470

L594 469

Z

M599 467

C600 467 602 467 603 467

L606 468

L601 468

L597 468

L599 467

Z

M626 450

L626 446

L627 448

C627 449 627 451 627 452

L626 454

L626 450

Z

M715 443

C717 443 719 443 720 443

L723 444

L718 444

L713 444

L715 443

Z

M573 437

L574 433

L579 432

L584 432

L584 437

L584 443

L583 438

L583 433

L579 433

L574 433

L574 437

L573 442

L573 437

Z

M723 438

L723 434

L724 436

C724 437 724 439 724 440

L723 443

L723 438

Z

M414 437

C414 436 416 435 416 435

L416 435

L415 437

C414 438 412 439 412 439

L412 439

L414 437

Z

M521 437

L521 434

L522 435

C522 436 522 438 522 438

L521 440

L521 437

Z

M610 432

C611 432 613 432 614 432

L616 433

L612 433

L608 433

L610 432

Z

M594 429

L594 427

L595 428

C595 428 595 430 595 430

L594 432

L594 429

Z

M594 422

L594 421

L595 422

L595 423

L595 424

L594 424

L594 422

Z

M539 383

C539 383 541 383 541 383

L543 384

L540 384

L538 384

L539 383

Z

M499 369

L499 366

L500 367

C500 368 500 370 500 370

L499 372

L499 369

Z

M510 369

L510 368

L511 369

L511 370

L511 371

L510 371

L510 369

Z

M499 362

L499 361

L500 362

L500 363

L500 364

L499 364

L499 362

Z

M469 349

C459 346 456 343 425 311

C396 281 393 278 391 272

C388 264 387 254 389 246

C391 240 396 230 397 230

C397 230 422 254 451 284

L505 338

L504 340

C502 341 498 344 494 346

C488 349 486 349 480 350

C475 350 471 349 469 349

Z

M505 327

L499 321

L501 319

C502 317 513 306 531 286

L535 281

L541 287

L547 293

L545 296

C521 322 511 333 511 333

C511 333 508 330 505 327

Z

M456 278

L419 241

L437 221

L456 201

L493 238

L530 275

L526 279

C515 292 494 315 493 315

C493 315 476 298 456 278

Z

M498 233

C468 203 444 179 444 178

C444 177 462 157 475 144

C480 139 492 126 502 115

C512 104 521 94 523 93

C527 90 535 89 541 91

C545 92 549 96 587 133

C632 178 633 179 633 190

C633 196 633 198 630 202

C628 206 610 226 565 275

C558 282 553 288 552 288

C552 288 528 263 498 233

Z

M408 230

L402 224

L404 221

C406 220 414 211 422 201

L438 184

L444 190

C447 193 450 196 450 196

C450 197 431 218 417 232

L413 236

L408 230

Z

M266 82

C266 82 268 82 268 82

L270 83

L267 83

L265 83

L266 82

Z

"/>

<path fill="#00ff00" stroke="none" d="
M469 349

C459 346 456 343 425 311

C396 281 393 278 391 272

C388 264 387 254 389 246

C391 240 396 230 397 230

C397 230 422 254 451 284

L505 338

L504 340

C502 341 498 344 494 346

C488 349 486 349 480 350

C475 350 471 349 469 349

Z

M504 327

L499 321

L501 319

C502 317 512 306 531 286

L535 281

L541 287

L547 292

L546 294

C544 297 512 332 511 332

C510 332 507 330 504 327

Z

M456 278

L419 241

L437 221

L456 201

L493 238

L530 275

L526 279

C515 292 494 315 493 315

C493 315 476 298 456 278

Z

M498 233

C468 203 444 179 444 178

C444 177 462 157 475 144

C480 139 492 126 502 115

C512 104 521 94 523 93

C527 90 535 89 541 91

C545 92 549 96 587 133

C632 178 633 179 633 190

C633 196 633 198 630 202

C628 206 613 223 565 275

C559 281 553 287 552 287

C552 287 527 263 498 233

Z

M408 231

C405 228 403 225 403 224

C403 222 437 185 438 185

C439 185 442 187 445 190

L450 196

L445 202

C442 205 434 214 427 222

C420 230 414 236 414 236

C413 236 411 234 408 231

Z

"/>

<path fill="#ff0000" stroke="none" d="
M469 349

C459 346 456 343 425 311

C396 281 393 278 391 272

C388 264 387 254 389 246

C391 240 396 230 397 230

C397 230 422 254 451 284

L505 338

L504 340

C502 341 498 344 494 346

C488 349 486 349 480 350

C475 350 471 349 469 349

Z

M504 327

L499 321

L501 319

C502 317 512 306 531 286

L535 281

L541 287

L547 292

L546 294

C544 297 512 332 511 332

C510 332 507 330 504 327

Z

M456 278

L419 241

L437 221

L456 201

L493 238

L530 275

L526 279

C515 292 494 315 493 315

C493 315 476 298 456 278

Z

M498 233

C468 203 444 179 444 178

C444 177 462 157 475 144

C480 139 492 126 502 115

C512 104 521 94 523 93

C527 90 535 89 541 91

C545 92 549 96 587 133

C632 178 633 179 633 190

C633 196 633 198 630 202

C628 206 613 223 565 275

C559 281 553 287 552 287

C552 287 527 263 498 233

Z

M408 231

C405 228 403 225 403 224

C403 222 437 185 438 185

C439 185 442 187 445 190

L450 196

L445 202

C442 205 434 214 427 222

C420 230 414 236 414 236

C413 236 411 234 408 231

Z

"/>

<path fill="#0000ff" stroke="none" d="
M469 349

C459 346 456 343 425 311

C396 281 393 278 391 272

C388 264 387 254 389 246

C391 240 396 230 397 230

C397 230 422 254 451 284

L505 338

L504 340

C502 341 498 344 494 346

C488 349 486 349 480 350

C475 350 471 349 469 349

Z

M504 327

L499 321

L501 319

C502 317 512 306 531 286

L535 281

L541 287

L547 292

L546 294

C544 297 512 332 511 332

C510 332 507 330 504 327

Z

M456 278

L419 241

L437 221

L456 201

L493 238

L530 275

L526 279

C515 292 494 315 493 315

C493 315 476 298 456 278

Z

M498 233

C468 203 444 179 444 178

C444 177 462 157 475 144

C480 139 492 126 502 115

C512 104 521 94 523 93

C527 90 535 89 541 91

C545 92 549 96 587 133

C632 178 633 179 633 190

C633 196 633 198 630 202

C628 206 613 223 565 275

C559 281 553 287 552 287

C552 287 527 263 498 233

Z

M408 231

C405 228 403 225 403 224

C403 222 437 185 438 185

C439 185 442 187 445 190

L450 196

L445 202

C442 205 434 214 427 222

C420 230 414 236 414 236

C413 236 411 234 408 231

Z

"/>

<path fill="#397f8f" stroke="none" d="
M469 349

C459 346 456 343 425 311

C396 281 393 278 391 272

C388 264 387 254 389 246

C391 240 396 230 397 230

C397 230 422 254 451 284

L505 338

L504 340

C502 341 498 344 494 346

C488 349 486 349 480 350

C475 350 471 349 469 349

Z

M504 327

L499 321

L501 319

C502 317 512 306 531 286

L535 281

L541 287

L547 292

L546 294

C544 297 512 332 511 332

C510 332 507 330 504 327

Z

M456 278

L419 241

L437 221

L456 201

L493 238

L530 275

L526 279

C515 292 494 315 493 315

C493 315 476 298 456 278

Z

M498 233

C468 203 444 179 444 178

C444 177 462 157 475 144

C480 139 492 126 502 115

C512 104 521 94 523 93

C527 90 535 89 541 91

C545 92 549 96 587 133

C632 178 633 179 633 190

C633 196 633 198 630 202

C628 206 613 223 565 275

C559 281 553 287 552 287

C552 287 527 263 498 233

Z

M408 231

C405 228 403 225 403 224

C403 222 437 185 438 185

C439 185 442 187 445 190

L450 196

L445 202

C442 205 434 214 427 222

C420 230 414 236 414 236

C413 236 411 234 408 231

Z

"/>

<path fill="#7e7b7a" stroke="none" d="
M469 348

C466 347 463 346 461 345

C458 343 432 319 432 317

C432 317 423 308 413 298

C396 281 394 278 392 273

C389 263 388 254 391 245

C392 241 393 237 393 237

C393 236 394 235 396 233

L398 231

L451 285

L505 338

L502 340

C501 341 497 344 493 345

C486 349 475 350 469 348

Z

M504 327

L499 321

L501 319

C502 317 512 306 531 286

L535 281

L541 287

L547 292

L546 294

C544 297 512 332 511 332

C510 332 507 330 504 327

Z

M456 278

L419 241

L437 221

L456 201

L493 238

L530 275

L526 279

C515 292 494 315 493 315

C493 315 476 298 456 278

Z

M508 242

C484 218 464 198 464 198

C464 198 460 193 454 188

L445 178

L446 176

C449 172 510 105 518 97

C525 90 532 88 541 91

C545 92 552 99 587 133

C632 178 633 179 633 190

C633 195 633 198 631 202

C628 206 587 252 579 259

L575 262

L575 263

L576 263

L565 274

C558 281 553 286 552 286

C552 286 532 266 508 242

Z

M408 231

C405 228 403 225 403 224

C403 222 437 185 438 185

C439 185 442 187 445 190

L450 196

L445 202

C442 205 434 214 427 222

C420 230 414 236 414 236

C413 236 411 234 408 231

Z

"/>

<path fill="#55b2c9" stroke="none" d="
M469 348

C466 347 463 346 461 345

C458 343 432 319 432 317

C432 317 423 308 413 298

C396 281 394 278 392 273

C389 263 388 254 391 245

C392 241 393 237 393 237

C393 236 394 235 396 233

L398 231

L451 285

L505 338

L502 340

C501 341 497 344 493 345

C486 349 475 350 469 348

Z

M505 326

L500 321

L502 319

C503 318 511 309 519 299

L535 282

L541 287

L546 293

L543 297

C531 310 512 331 511 331

C510 331 507 329 505 326

Z

M460 281

C442 263 426 248 426 247

L425 246

L425 246

L425 247

L423 244

L420 241

L437 222

C447 212 455 203 456 203

C457 203 528 274 528 275

C528 276 526 279 507 299

C500 307 493 314 493 314

C493 314 478 299 460 281

Z

M508 242

C484 218 464 198 464 198

C464 198 460 193 455 188

C449 183 445 178 445 178

C445 178 451 171 458 163

C488 131 514 102 518 98

C525 91 532 90 541 92

C545 93 551 99 580 128

C599 147 615 162 615 162

C616 162 618 164 621 168

C627 174 632 182 632 186

C632 187 632 189 633 190

L634 191

L633 191

C632 192 632 193 632 195

C632 200 626 207 611 224

C602 233 595 241 595 241

C595 241 590 246 585 252

L575 262

L575 263

L576 263

L565 274

C558 281 553 286 552 286

C552 286 532 266 508 242

Z

M409 230

C402 224 402 225 421 204

C430 194 438 186 438 186

C439 186 442 188 444 191

L449 196

L444 202

C440 206 433 214 426 221

C420 228 414 234 414 234

C413 234 411 232 409 230

Z

"/>

<path fill="#60bad1" stroke="none" d="
M469 347

C466 346 462 345 461 344

C454 339 396 279 393 274

C391 270 391 268 391 258

C391 247 391 246 393 240

L396 233

L398 233

L399 233

L399 234

C399 234 401 237 404 239

C406 242 430 265 456 291

L503 338

L503 338

C503 339 499 341 496 343

C489 347 488 348 482 348

C478 348 472 347 469 347

Z

M505 326

L500 321

L502 319

C503 318 511 309 519 299

L535 282

L541 287

L546 293

L543 297

C531 310 512 331 511 331

C510 331 507 329 505 326

Z

M460 281

C442 263 426 248 426 247

L425 246

L425 246

L425 247

L423 244

L420 241

L437 222

C447 212 455 203 456 203

C457 203 528 274 528 275

C528 276 526 279 507 299

C500 307 493 314 493 314

C493 314 478 299 460 281

Z

M542 275

C536 269 530 263 529 262

C528 260 519 252 510 242

C500 233 488 221 483 216

C478 210 474 206 474 205

L474 203

L472 203

L471 203

L472 202

L473 201

L472 201

C471 200 471 200 470 200

L469 201

L457 189

L446 178

L449 175

C450 174 454 169 457 165

C461 161 464 157 466 157

L468 155

L468 156

L468 157

L469 156

L471 155

L474 157

C475 158 477 158 478 159

C479 159 484 163 489 168

C500 180 498 177 508 187

L516 195

L514 197

L512 199

L513 201

L513 203

L514 201

L514 200

L516 201

L517 203

L517 200

L516 198

L517 198

C519 198 523 202 543 221

C553 232 563 241 564 242

L567 244

L545 222

C532 210 514 191 503 180

C492 169 481 158 478 154

L472 148

L493 125

C504 113 516 100 518 98

C525 91 532 90 541 92

C545 93 551 99 580 128

C599 147 615 162 615 162

C616 162 618 164 621 168

C627 174 632 182 632 186

C632 187 632 189 633 190

L634 191

L633 191

C632 192 632 193 632 195

C632 200 626 207 611 224

C602 233 595 241 595 241

C595 242 588 249 580 257

C571 266 562 275 558 279

L552 286

L542 275

Z

M552 254

L552 253

L551 253

L550 253

L550 254

L550 255

L550 255

C551 255 551 255 552 254

Z

M547 247

L548 246

L547 247

L545 247

L545 248

L545 249

L545 249

C546 249 546 248 547 247

Z

M508 221

L509 219

L507 220

L506 221

L507 222

C507 223 507 223 507 223

L508 223

L508 221

Z

M498 219

L498 218

L496 218

L495 218

L496 219

C497 220 498 220 498 220

L498 220

L498 219

Z

M520 202

L520 201

L519 201

L518 201

L518 202

L518 203

L519 203

L520 203

L520 202

Z

M481 200

C480 199 479 198 478 198

L477 198

L477 199

C477 200 478 201 480 201

L482 201

L481 200

Z

M476 196

L476 195

L477 196

L478 196

L478 195

L478 193

L477 193

C475 193 471 196 471 197

L471 198

L473 198

L476 198

L476 196

Z

M498 183

L499 182

L498 182

L497 181

L497 183

L497 184

L498 184

C498 184 498 184 498 183

Z

M409 230

C402 224 402 225 421 204

C430 194 438 186 438 186

C439 186 442 188 444 191

L449 196

L444 202

C440 206 433 214 426 221

C420 228 414 234 414 234

C413 234 411 232 409 230

Z

"/>

<path fill="#ff00ff" stroke="none" d="
M505 326

L500 321

L502 319

C503 318 511 309 519 299

L535 282

L541 287

L546 293

L543 297

C531 310 512 331 511 331

C510 331 507 329 505 326

Z

M460 281

C442 263 426 248 426 247

L425 246

L425 246

L425 247

L423 244

L420 241

L437 222

C447 212 455 203 456 203

C457 203 528 274 528 275

C528 276 526 279 507 299

C500 307 493 314 493 314

C493 314 478 299 460 281

Z

M526 202

C497 173 473 148 473 148

C473 147 511 105 518 98

C525 91 532 90 541 92

C545 93 551 99 580 128

C599 147 615 162 615 162

C616 162 618 164 621 168

C627 174 632 182 632 186

C632 187 632 189 633 190

L634 191

L633 191

C632 192 632 193 632 195

C632 200 626 207 611 224

C602 233 595 241 595 241

C595 242 581 256 580 256

C580 256 556 232 526 202

Z

M409 230

C402 224 402 225 421 204

C430 194 438 186 438 186

C439 186 442 188 444 191

L449 196

L444 202

C440 206 433 214 426 221

C420 228 414 234 414 234

C413 234 411 232 409 230

Z

"/>

<path fill="#00ffff" stroke="none" d="
M505 326

L500 321

L502 319

C503 318 511 309 519 299

L535 282

L541 287

L546 293

L543 297

C531 310 512 331 511 331

C510 331 507 329 505 326

Z

M460 281

C442 263 426 248 426 247

L425 246

L425 246

L425 247

L423 244

L420 241

L437 222

C447 212 455 203 456 203

C457 203 528 274 528 275

C528 276 526 279 507 299

C500 307 493 314 493 314

C493 314 478 299 460 281

Z

M526 202

C497 173 473 148 473 148

C473 147 511 105 518 98

C525 91 532 90 541 92

C545 93 551 99 580 128

C599 147 615 162 615 162

C616 162 618 164 621 168

C627 174 632 182 632 186

C632 187 632 189 633 190

L634 191

L633 191

C632 192 632 193 632 195

C632 200 626 207 611 224

C602 233 595 241 595 241

C595 242 581 256 580 256

C580 256 556 232 526 202

Z

M409 230

C402 224 402 225 421 204

C430 194 438 186 438 186

C439 186 442 188 444 191

L449 196

L444 202

C440 206 433 214 426 221

C420 228 414 234 414 234

C413 234 411 232 409 230

Z

"/>

<path fill="#ffff00" stroke="none" d="
M505 326

L500 321

L502 319

C503 318 511 309 519 299

L535 282

L541 287

L546 293

L543 297

C531 310 512 331 511 331

C510 331 507 329 505 326

Z

M460 281

C442 263 426 248 426 247

L425 246

L425 246

L425 247

L423 244

L420 241

L437 222

C447 212 455 203 456 203

C457 203 528 274 528 275

C528 276 526 279 507 299

C500 307 493 314 493 314

C493 314 478 299 460 281

Z

M526 202

C497 173 473 148 473 148

C473 147 511 105 518 98

C525 91 532 90 541 92

C545 93 551 99 580 128

C599 147 615 162 615 162

C616 162 618 164 621 168

C627 174 632 182 632 186

C632 187 632 189 633 190

L634 191

L633 191

C632 192 632 193 632 195

C632 200 626 207 611 224

C602 233 595 241 595 241

C595 242 581 256 580 256

C580 256 556 232 526 202

Z

M409 230

C402 224 402 225 421 204

C430 194 438 186 438 186

C439 186 442 188 444 191

L449 196

L444 202

C440 206 433 214 426 221

C420 228 414 234 414 234

C413 234 411 232 409 230

Z

"/>

<path fill="#b5b1ae" stroke="none" d="
M505 326

L500 321

L502 319

C503 318 511 309 519 299

L535 282

L541 287

L546 293

L543 297

C531 310 512 331 511 331

C510 331 507 329 505 326

Z

M460 281

C442 263 426 248 426 247

L425 246

L425 246

L425 247

L423 244

L420 241

L437 222

C447 212 455 203 456 203

C457 203 528 274 528 275

C528 276 526 279 507 299

C500 307 493 314 493 314

C493 314 478 299 460 281

Z

M526 202

C497 173 473 148 473 148

C473 147 511 105 518 98

C525 91 532 90 541 92

C545 93 551 99 580 128

C599 147 615 162 615 162

C616 162 618 164 621 168

C627 174 632 182 632 186

C632 187 632 189 633 190

L634 191

L633 191

C632 192 632 193 632 195

C632 200 626 207 611 224

C602 233 595 241 595 241

C595 242 581 256 580 256

C580 256 556 232 526 202

Z

M409 230

C402 224 402 225 421 204

C430 194 438 186 438 186

C439 186 442 188 444 191

L449 196

L444 202

C440 206 433 214 426 221

C420 228 414 234 414 234

C413 234 411 232 409 230

Z

"/>

<path fill="#eeeeee" stroke="none" d="
"/>

<path fill="#f2f2f2" stroke="none" d="
"/>

<path fill="#f2f3f2" stroke="none" d="
"/>

<path fill="#f4f4f4" stroke="none" d="
"/>

<path fill="#f4f4f5" stroke="none" d="
"/>

<path fill="#f5f5f5" stroke="none" d="
"/>

<path fill="#f5f5f6" stroke="none" d="
"/>

<path fill="#f5f6f5" stroke="none" d="
"/>

<path fill="#f6f6f6" stroke="none" d="
"/>

<path fill="#f7f6f6" stroke="none" d="
"/>

<path fill="#f8f8f8" stroke="none" d="
"/>

<path fill="#fafbfb" stroke="none" d="
"/>

<path fill="#fefdfd" stroke="none" d="
"/>

<path fill="#feffff" stroke="none" d="
"/>

<path fill="#fffffe" stroke="none" d="
"/>

<path fill="#ffffff" stroke="none" d="
"/>

<path fill="#ffffff" stroke="none" d="
"/>

</svg>

