<?xml version="1.0" encoding="utf-8"?>
<!-- Generator: Adobe Illustrator 29.8.1, SVG Export Plug-In . SVG Version: 9.03 Build 0)  -->
<svg version="1.0" id="Layer_1" xmlns="http://www.w3.org/2000/svg" xmlns:xlink="http://www.w3.org/1999/xlink" x="0px" y="0px"
	 viewBox="0 0 819 819" style="enable-background:new 0 0 819 819;" xml:space="preserve">
<style type="text/css">
	.st0{fill:#231F20;}
</style>
<path class="st0" d="M480,722c-6-2-12-9-14-15c-1-2-2-8-3-12s-2-13-3-19l-2-12h-1h-1v-1c1,0,0-5-2-10c-5-19-13-38-24-54
	c-7-11-24-28-35-35c-22-14-51-24-81-28c-14-2-18-3-23-7c-13-12-12-34,3-44c3-2,6-3,15-4c17-2,35-6,46-9c10-3,31-13,31-14v-1h1
	c0,1,3-1,7-3c19-13,36-33,47-56c5-10,13-34,13-39l1-3l0,0h1v-2v-3l6,3c5,2,7,2,16,2c7,0,11,0,15-2c6-2,15-8,20-13c2-2,3-3,3-3h1v3
	c0,2,0,4,1,4c0,1,0,3,1,4c0,5,6,25,11,37c4,10,4,10,8,10h4v6v6h-5h-5v6v6h6h5v-4v-4l2,3c1,2,3,3,3,3h1v1h-1l3,4c6,8,17,19,24,24
	s18,12,19,12h1v-1v-2h5h6l-1,4v5l5,1c10,4,23,8,24,8v-1l1,1c2,1,15,4,26,5c9,1,14,3,20,9c3,2,5,3,7,3h4v6v6h-1h-1v6c-1,6-4,14-7,17
	c-1,1-4,1-7,1h-5l-1,3v4l-13,2c-6,1-17,3-24,5c-71,19-106,64-117,152c-3,17-6,23-16,29C495,724,485,724,480,722z M504,568
	c14-20,33-39,53-52c3-2,6-4,6-4l1-1l0,0c0,0,2,0,3,0l2-1v-2v-1h-1c-1,0-5-2-9-5c-4-2-8-4-8-4h-1v-1c0,0-3-3-7-6c-19-14-40-41-51-64
	c-2-4-3-7-4-7c0,0-1,1-1,3l-2,3h1l0,0l-1,1c-1,1-3,6-6,11c-9,15-17,25-32,40l-14,14l0,0v-1l-5,4c-2,1-8,5-13,8c-4,3-8,6-8,6s2,2,5,3
	c9,5,24,16,34,26c15,14,27,29,37,48l5,10l6-10C496,581,501,572,504,568z M638,521v-6h-5h-6v6v5h6h5V521z M659,509v-6h-5l-5,1l-1,4
	c0,2,0,5,0,6l1,1h5h5V509z M638,497v-5h-5h-5l-1,5v6h5h6V497z M584,485v-6h-5l-5,1l-1,5v6h5h6V485z M638,485v-5l-6-1h-5v5v6h6h5V485
	z M606,473v-5h-4c-3,0-5,0-6,0l0,0l-1,5c0,3,0,5,0,5c0,1,3,1,6,1h5V473z M543,462v-6h-5h-6v-6v-6h-5h-6v-6v-6h-6h-5v6l1,6h5h5v6l1,6
	h5h5v6v5h6h5V462z M489,414v-6h-5h-6v6v6h5h6V414z M521,402v-6h-5l-5,1l-1,4c0,2,0,5,0,6l1,1h5h5V402z M511,367c0-5-1-7-7-7h-4v6v6
	h5h5L511,367z M692,545v-6h5c2,0,4,0,5,0c0,0,0,3,0,6v5h-5h-5V545z M692,509v-6h5h6v-6v-6h5h5v-6v-6h5l6,1v5v6h-6h-5v6v5h-5l-5,1
	l-1,5v6h-5h-5V509z M670,474v-6h6h5v6v5h-5h-6V474z M627,461v-5l-6-1h-5v-6v-5h-5h-4l-1-6v-6h5h5v6v6h6h5v6v6h5h6v5v6h-6h-5V461z
	 M660,462v-6h5h5v6v5h-5h-5V462z M692,462v-6h5h5v6v5h-5h-5V462z M574,443c-1,0-1-3-1-6v-5h-5h-5v-6v-5l-6-1h-5v-6v-6h2c1-1,4-1,5,0
	h3v6v6h6h5v6v6h6h5v6v6h-5C576,444,574,444,574,443z M713,438v-6h5l6,1v5v6h-6h-5V438z M585,432h-1v-6v-5h5h6v5v6h-5
	C588,432,586,432,585,432z M642,432h-4v-6v-5h5h5v5v6h-1C647,432,645,432,642,432z M259,425c-9-4-13-11-16-27c-4-29-12-53-24-71
	c-6-9-21-24-30-29c-16-10-35-16-58-20c-14-1-18-3-23-9c-3-4-6-11-6-16c0-4,3-11,6-15c4-6,9-8,20-9c12-1,23-4,25-5l1-1v1
	c1,0,16-5,25-10c27-13,46-36,56-68c4-12,6-20,8-36c1-7,3-13,4-15l1-2l0,0h-1l4-3c7-7,14-9,22-7c11,3,16,11,18,28c6,40,21,72,43,90
	l7,5l0,0h1l2,2c3,3,16,9,18,9h1v1v1l8,3c5,1,11,3,14,4l5,1v1c0,0-1,3-3,6c-6,13-7,28-2,40l2,6v1c0,0-5,1-10,2c-13,4-32,13-42,21
	c-4,4-11,10-14,15l-7,8l1,1v1h-1c0,0-2,3-4,7l-4,7h1h1l-2,1c-1,1-5,12-8,23c-3,10-6,22-7,33s-5,18-11,22c-4,3-5,4-11,4
	C265,426,260,426,259,425z M270,310c5-9,13-21,22-31c5-5,9-9,9-9c1,0,3-2,5-3c3-2,8-6,12-9l7-4l-10-7c-17-11-32-29-43-47
	c-2-4-5-8-5-8s-3,4-6,9c-10,18-25,35-42,46c-5,3-10,6-10,6v1l7,4l7,5l0,0v-1l4,4c5,4,24,23,24,23c0,1,2,4,5,9c3,4,7,10,8,12
	c1,3,3,5,3,5S269,313,270,310z M595,414v-5h5h6v6v5h-6h-5V414z M563,403v-6h5h5v6v5h-5h-5V403z M535,383h-3v-6v-5h5h5v6v6h-2
	C539,384,537,383,535,383z M532,355v-6h5h5v6v5h-5h-5V355z M469,349c-10-3-13-6-44-38c-29-30-32-33-34-39c-3-8-4-18-2-26
	c2-6,7-16,8-16c0,0,25,24,54,54l54,54l-1,2c-2,1-6,4-10,6c-6,3-8,3-14,4C475,350,471,349,469,349z M543,343v-6h5h5v6v5h-5h-5V343z
	 M584,347c0-1,0-4,0-6v-3l5-1h6v5v6h-6h-5V347z M505,327l-6-6l2-2c1-1,8-10,17-19c9-10,16-18,16-19v-1h1c0,0,11,12,12,13
	c0,0-4,4-8,9s-8,9-8,9s-5,5-10,11l-10,11L505,327z M457,280c-19-19-35-36-36-37l-2-2l18-20l19-20l37,37l37,37l-4,4
	c-11,13-32,36-33,36C493,315,477,299,457,280z M498,233c-30-30-54-54-54-55s16-18,42-47c9-9,21-22,26-28l9-10v1l0,0l2-2
	c4-2,12-2,18-1c4,1,8,4,40,36c20,20,38,38,41,41c8,7,11,14,11,22c0,6,0,8-3,12c-2,4-20,24-65,73c-7,7-12,13-13,13
	C552,288,528,263,498,233z M408,230l-6-6l2-3c2-1,10-10,18-20l16-17l6,6c3,3,6,6,6,6c0,1-19,22-33,36l-4,4L408,230z"/>
<path class="st0" d="M492,723h1h1v1h-2h-1L492,723z M471,717l-1-2l2,1c1,1,2,2,2,3l0,0l0,0C473,719,472,718,471,717z M515,691v-1
	l1,1v1v1h-1V691z M462,690v-2l1,1v2l-1,2V690z M693,540c1-1,8-1,9-1v1h-4H693L693,540z M311,535h1h1v1h-2h-1L311,535z M440,532l-1-1
	L440,532c1,1,2,1,2,2l0,0l0,0C441,534,441,533,440,532z M535,533c0-1,1-1,2-2l2-1l-2,1C536,532,536,533,535,533L535,533L535,533z
	 M626,526c0-1,0-4,0-7l1-4l5-1h6l-2,1c-1,0-3,1-5,0h-4v5v6h5l6,1h-6h-5L626,526z M676,526c1,0,3,0,3,0l2,1h-3h-3L676,526z M659,509
	v-6l1,3c0,2,0,4,0,6l-1,4V509z M689,508v-5l1,2c0,2,0,4,0,5l-1,3V508z M406,509c0,0,0-1,1-1l1-1l-1,1v2h-1l0,0V509z M691,501v-1l1,1
	v1v1h-1V501z M691,493v-2l1,1v2l-1,2V493z M626,493c0,0,0-1,1-1l1-1l-1,1v2h-1l0,0V493z M718,490h5v-5v-5h-5l-5-1h5l6,1v5v6h-6h-5
	L718,490z M536,485l-1-1L536,485c1,1,2,1,2,2l0,0l0,0C537,487,537,486,536,485z M307,481h1h1v1h-2h-1L307,481z M314,480h2l2,1h-3h-2
	L314,480z M595,479l-1-1l5,1c3,0,6,0,6,1l0,0h-5C597,480,595,480,595,479z M662,479h2l2,1h-3h-2L662,479z M654,478h1h1v1h-2h-1
	L654,478z M670,474v-5l1,2c0,2,0,4,0,6l-1,3V474z M594,473c0-3,0-5,1-5l1-1l-1,4c0,2,0,4,0,5l-1,2V473z M643,476h1h1v1h-2h-1
	L643,476z M680,473v-4l1,2c0,1,0,3,0,4l-1,3V473z M634,474v-1l1,1c1,0,1,0,1,1l0,0h-1h-1V474z M521,470l-1-1L521,470c1,1,2,1,2,2
	l0,0l0,0C522,472,522,471,521,470z M531,467c0-1,0-4,0-6l1-4v5v5h6l6,1h-6h-6L531,467z M599,467c1,0,3,0,4,0l3,1h-5h-4L599,467z
	 M534,455c2,0,4,0,6,0l3,1h-6h-5L534,455z M616,449v-5l1,2c0,2,0,4,0,6l-1,3V449z M626,449v-5l1,2c0,2,0,4,0,6l-1,3V449z M607,444
	v-1h4h4l0,0v1h-4l-4,1V444z M521,438v-6l1,3c0,2,0,4,0,6l-1,4V438z M576,443c2,0,4,0,5,0l3,1h-5h-5L576,443z M718,443h5v-5l1-5v5v6
	h-6h-5L718,443z M408,443c0-1,1-1,2-2l2-1l-2,1C409,442,409,443,408,443L408,443L408,443z M573,437v-5h6h5v5v6l-1-5v-5h-4h-5v5l-1,5
	V437z M412,439c0,0,1-2,3-4l4-2l-3,3C414,438,412,439,412,439L412,439L412,439z M562,437l-1-2l2,1c1,1,2,2,2,3l0,0l0,0
	C564,439,563,438,562,437z M608,432c2,0,4,0,6,0l3,1h-6h-5L608,432z M717,432c1,0,3,0,4,0l2,1h-4h-4L717,432z M594,430v-3l1,1
	c0,1,0,3,0,3l-1,2V430z M594,422v-1l1,1v1v1h-1V422z M251,419l-1-1L251,419c1,1,2,1,2,2l0,0l0,0C252,421,252,420,251,419z M282,421
	c0-1,1-1,2-2l2-1l-2,1C283,420,283,421,282,421L282,421L282,421z M557,420l-5-1h5c3,0,5,0,6,1v1l0,0C563,421,560,420,557,420z
	 M477,414v-6l1,3c0,2,0,4,0,6l-1,4V414z M531,414v-6l1,3c0,2,0,4,0,6l-1,3V414z M554,408c1-1,3-1,5,0l3,1h-5h-4L554,408z M244,404
	v-1l1,1v1v1h-1V404z M290,403v-1l1,1v1v1h-1V403z M521,399v-2l1,1v2l-1,2V399z M243,396v-1l1,1v1v1h-1V396z M539,383h2l2,1h-3h-2
	L539,383z M500,372c-1,0-1-3-1-6v-6h1c0,1,0,3,0,6s1,6,1,6l2,1h-2C501,373,500,373,500,372z M534,372c2,0,4,0,5,0l3,1h-5h-5L534,372
	z M510,370v-2l1,1v2l-1,2V370z M510,361l-1-1h1h1v1v1l0,0C510,362,510,362,510,361z M469,349c-10-3-13-6-44-38c-29-30-32-33-34-39
	c-3-8-4-18-2-26c2-6,7-16,8-16c0,0,25,24,54,54l54,54l-1,2c-2,1-6,4-10,6c-6,3-8,3-14,4C475,350,471,349,469,349z M594,346v-1l1,1v1
	v1h-1V346z M594,340v-3l1,1c0,1,0,3,0,3l-1,2V340z M505,327l-6-6l2-2c1-1,8-10,17-19c9-10,16-18,16-19v-1h1c0,0,11,12,12,13
	c0,0-4,4-8,9s-8,9-8,9s-5,5-10,11l-10,11L505,327z M207,313c-1-1-2-2-3-3v-1l3,2c2,2,3,4,3,4l0,0h-1C209,315,208,314,207,313z
	 M457,280c-19-19-35-36-36-37l-2-2l18-20l19-20l37,37l37,37l-4,4c-11,13-32,36-33,36C493,315,477,299,457,280z M250,289l-1-1h1h1v1
	v1l0,0C250,290,250,290,250,289z M498,233c-30-30-54-54-54-55s16-18,42-47c9-9,21-22,26-28l9-10v1l0,0l2-2c4-2,12-2,18-1
	c4,1,8,4,40,36c20,20,38,38,41,41c8,7,11,14,11,22c0,6,0,8-3,12c-2,4-20,24-65,73c-7,7-12,13-13,13C552,288,528,263,498,233z
	 M132,278h1h1v1h-2h-1L132,278z M300,272v-2h1h1l-1,2c-1,0-1,1-2,1l0,0L300,272z M102,253v-4l1,2c0,1,0,3,0,4l-1,3V253z M231,238
	c0-1,1-1,2-2l2-1l-2,1C232,237,232,238,231,238L231,238L231,238z M300,235l-1-1L300,235c1,1,2,1,2,2l0,0l0,0
	C301,237,301,236,300,235z M408,230l-6-6l2-3c2-1,10-10,18-20l16-17l6,6c3,3,6,6,6,6c0,1-19,22-33,36l-4,4L408,230z M124,229h1h1v1
	h-2h-1L124,229z M290,225l-1-1L290,225c1,1,2,1,2,2l0,0l0,0C291,227,291,226,290,225z M153,224c0-1,0-1,1-1l0,0v1v1h-1h-1L153,224z
	 M283,89l-1-1L283,89c1,1,2,1,2,2l0,0l0,0C284,91,284,90,283,89z M266,82h2l2,1h-3h-2L266,82z"/>
<path class="st0" d="M633,515h1h1v1h-2h-1L633,515z M723,484v-3l1,1c0,1,0,3,0,4l-1,2V484z M717,479c1,0,3,0,3,0l2,1h-3h-3L717,479z
	 M723,438v-2l1,1v2l-1,2V438z M556,407h1h1v1h-2h-1L556,407z M510,369v-1l1,1v1v1h-1V369z M469,349c-10-3-13-6-44-38
	c-29-30-32-33-34-39c-3-8-4-18-2-26c2-6,7-16,8-16c0,0,25,24,54,54l54,54l-1,2c-2,1-6,4-10,6c-6,3-8,3-14,4C475,350,471,349,469,349
	z M505,327l-6-6l2-2c1-1,8-10,17-19c9-10,16-18,16-19v-1h1c0,0,11,12,12,13c0,0-4,4-8,9s-8,9-8,9s-5,5-10,11l-10,11L505,327z
	 M457,280c-19-19-35-36-36-37l-2-2l18-20l19-20l37,37l37,37l-4,4c-11,13-32,36-33,36C493,315,477,299,457,280z M498,233
	c-30-30-54-54-54-55s16-18,42-47c9-9,21-22,26-28l9-10v1l0,0l2-2c4-2,12-2,18-1c4,1,8,4,40,36c20,20,38,38,41,41c8,7,11,14,11,22
	c0,6,0,8-3,12c-2,4-20,24-65,73c-7,7-12,13-13,13C552,288,528,263,498,233z M408,230l-6-6l2-3c2-1,10-10,18-20l16-17l6,6
	c3,3,6,6,6,6c0,1-19,22-33,36l-4,4L408,230z"/>
<path class="st0" d="M633,515h1h1v1h-2h-1L633,515z M556,407h1h1v1h-2h-1L556,407z M505,327c-3-3-5-6-5-7s3-4,7-8c3-3,6-7,6-7
	s1-2,2-3l3-1l-2,2l-2,2l0,0c1,0,4-4,7-8s6-8,7-8l0,0l-1,2l-1,2l4-5l5-5l5,4l5,5l-6-6l-5-5v-1h1l0,0c0,0,3,3,7,7l6,6h-2l-1-1v1
	c0,1-2,3-4,5l-3,4l2-2l3-1l-12,11l-12,12v1l1,1l-2,1l-1,2l1-2l1-2l-3,4c-2,2-4,3-5,4l-1,1L505,327z M435,322l-4-5l0,0c0,0,3,2,5,5
	l4,4l0,0C440,326,437,324,435,322z M489,311l-3-3l1,1h2l-3-2l-2-3l-1,1h-1l-2-2l-1-2l2,2l2,2l-1-2c-1-1-2-3-3-3s-5-4-9-8l-8-7l1-1
	v-1h-1l-1,1l-3-2l-2-3l1-1v-1h-1l-1,1l-1-2l-1-1v-1l0,0l-1-1l0,0v1l1,1h-1h-1v-1c0-1,0-2,0-2v-1h-1l-1,1l-5-5l-5-6h1l1-1h-2l-1,1
	l-8-9l-8-8l3,3l4,3l-4-5l-4-4l-1,1h-1v-1c0,0,2-3,6-6c3-3,8-9,13-13l8-8l-2,1l-2,1l4-3c2-2,4-5,6-8l3-4l34,34c19,19,34,35,34,35
	c0,1,1,1,1,2h1l-1-1v-1l3,2l3,3l-4,3l-3,3v1l1,1l-2,1l-1,2l1-2l2-2l-2,1c-1,1-2,2-2,2c0,1-4,6-10,11l-10,10l1,1v1l-1,1h-1l1-1v-1
	l-4,4l-3,4L489,311z M530,312c0-1,0-1,1-1l0,0v1v1h-1h-1L530,312z M511,296c0-1,1-1,2-2l2-1l-2,1C512,295,512,296,511,296L511,296
	L511,296z M552,285l-1-1h1h1v1v1l0,0C552,286,552,286,552,285z M561,279c0-1,2-2,2-2l0,0l-1,2c-1,1-3,2-3,2l0,0L561,279z M388,262
	v-1l1,1v1v1h-1V262z M527,203c-29-30-54-55-54-55l-1-2l11-11l11-11h-1l0,0l5-5c3-3,9-10,14-16l9-10v1l0,0l2-2c4-2,12-2,18-1
	c4,1,8,5,40,37l36,37l-1-2l-1-2l3,2c1,1,4,4,7,7l4,4h-2l-1-1l2,2l3,2h-1h-1l1,2c1,1,2,2,2,3l-1,1h1h1l-1,3v3h1h1v2c-1,1-1,3-1,4
	c0,4-4,10-10,16l-5,5l2-1l2-1l-6,6c-3,3-10,10-15,15l-9,9l2-2l3-1l-6,6c-4,3-7,7-8,8l-2,2L527,203z M409,231c-6-6-6-7-3-10
	c1-1,2-3,2-3v-1h1c1-1,8-9,9-11l1-2l1,1h1v-1v-1h1c0,0,3-3,6-6l5-5l-2,1l-2,1l4-4c2-3,5-5,6-5c0,0,3,3,6,6l5,5l-4,4l-5,4v1l1,1l-2,1
	l-1,2l-1-1l0,0l-4,5l-5,5h1v1l-5,4l-5,4v1l1,1l-2,1l-1,2l1-2l1-2l-3,3l-4,4h1v1l0,0C414,236,411,234,409,231z M413,234c0,0-1-2-3-4
	l-3-2l2,3C411,233,413,234,413,234L413,234L413,234z M473,208l-2-2L473,208c2,1,3,2,3,3l0,0l0,0C475,211,474,210,473,208z M464,200
	l-1-2l2,1c1,1,2,2,2,3l0,0l0,0C466,202,465,201,464,200z"/>
<path class="st0" d="M633,515h1h1v1h-2h-1L633,515z M556,407h1h1v1h-2h-1L556,407z M458,281l-1-1L458,281c1,1,2,1,2,2l0,0l0,0
	C459,283,459,282,458,281z"/>
<path class="st0" d="M633,515h1h1v1h-2h-1L633,515z M556,407h1h1v1h-2h-1L556,407z M458,281l-1-1L458,281c1,1,2,1,2,2l0,0l0,0
	C459,283,459,282,458,281z"/>
<path class="st0" d="M633,515h1h1v1h-2h-1L633,515z"/>
<path class="st0" d="M0,0"/>
</svg>
